<svg width="252" height="191" fill="none" xmlns="http://www.w3.org/2000/svg"><path d="M46.269 121.002c18.474 14.447 41.155 16.307 50.658 4.154 9.503-12.153 2.23-33.716-16.245-48.163-18.474-14.446-41.155-16.306-50.658-4.153-9.503 12.153-2.23 33.716 16.245 48.162z" fill="#000" stroke="#828282" stroke-miterlimit="10"/><path d="M85.11 140.265l11.471-14.67.344-.44c-9.503 12.153-32.184 10.293-50.658-4.153-18.475-14.447-25.747-36.01-16.244-48.163l-.345.44-11.47 14.67c-9.504 12.153-2.231 33.716 16.243 48.163 18.475 14.446 41.156 16.305 50.659 4.153z" fill="#000" stroke="#828282" stroke-miterlimit="10"/><path d="M42.147 109.68l-3.51-26.028 12.233 1.06.588 4.388-6.979-.605.833 6.323 6 .52.589 4.386-6-.52 1.5 10.932-5.255-.456zm15.133 1.312l-3.51-26.028 5.254.456 3.51 26.028-5.254-.456zm9.332.808l-3.51-26.028 12.233 1.06.589 4.388-6.98-.605.833 6.323 6 .519.589 4.387-6-.519 1.499 10.933-5.253-.458zm29.798 2.581l-5.294-.459-1.426-4.278-6.117-.53-.337 4.126-5.647-.489 3.314-25.437 5.175.45L96.41 114.38zm-8.33-9.211l-3.517-10.384-.64 10.025 4.157.359zm147.227 52.332c39.796-4.294 69.669-29.913 66.722-57.221-2.946-27.309-37.596-45.966-77.392-41.672-39.797 4.294-69.669 29.913-66.723 57.221 2.947 27.309 37.597 45.966 77.393 41.672z" fill="#000" stroke="#828282" stroke-miterlimit="10"/><path d="M157.914 115.83l2.668 24.724c2.947 27.309 37.597 45.965 77.393 41.671 39.796-4.294 69.669-29.912 66.722-57.221l-2.667-24.723c2.946 27.309-26.927 52.927-66.723 57.221-39.796 4.294-74.446-14.362-77.393-41.672zm41.165-43.634l57.181 1.632 1.828 16.942-9.638-.278-1.043-9.666-13.896-.424.897 8.309-9.638-.278-.897-8.31-24.009-.65-.785-7.277zm2.261 20.961l57.182 1.631.785 7.276-57.181-1.631-.786-7.276z" fill="#000" stroke="#828282" stroke-miterlimit="10"/><path d="M202.735 106.082l57.181 1.631 1.828 16.943-9.638-.278-1.043-9.667-13.896-.424.897 8.31-9.638-.279-.897-8.309-24.009-.651-.785-7.276zm4.453 41.273l-.791-7.33 9.108-.928-.914-8.473-9.372-1.515-.843-7.82 58.2 11.081.774 7.167-56.162 7.818zm17.8-9.391l22.087-2.329-22.708-3.427.621 5.756zM171.777 68.32c32.596-14.607 54.921-35.597 49.864-46.884-5.058-11.287-35.583-8.596-68.179 6.01-32.597 14.607-54.922 35.597-49.864 46.884 5.057 11.287 35.582 8.596 68.179-6.01z" fill="#000" stroke="#828282" stroke-miterlimit="10"/><path d="M112.754 94.767l-9.157-20.437c5.057 11.287 35.582 8.596 68.179-6.01 32.596-14.606 54.921-35.596 49.864-46.883l9.157 20.436c5.058 11.287-17.268 32.277-49.864 46.884-32.596 14.606-63.121 17.297-68.179 6.01z" fill="#000" stroke="#828282" stroke-miterlimit="10"/><path d="M187.125 45.705l-18.643 18.243-8.624.588-14.366-8.05c-1.395-.794-3.806-1.073-7.236-.84-1.21.084-2.342.34-3.395.774s-1.923.986-2.609 1.657c-.686.67-.931 1.198-.734 1.58.196.381.901.532 2.111.448l3.252-.22-7.262 7.107-2.875.196c-4.134.282-6.476-.364-7.026-1.939-.62-1.504.531-3.688 3.458-6.55 2.781-2.721 6.02-4.95 9.712-6.681 4.334-2.038 8.673-3.207 13.009-3.5 4.186-.286 7.263.146 9.232 1.295l12.078 7.121 10.839-10.606 9.079-.623zM205.524 27.7l-7.262 7.107-41.984 2.86-.005 5.379-11.348.773-.523-5.344 7.262-7.106 53.86-3.668z" fill="#000" stroke="#828282" stroke-miterlimit="10"/></svg>