<svg width="76" height="71" fill="none" xmlns="http://www.w3.org/2000/svg"><ellipse cx="37.692" cy="37.207" rx="37.692" ry="33.793" fill="url(#paint0_linear)"/><ellipse cx="37.692" cy="33.794" rx="37.692" ry="33.794" fill="#391B3C"/><path d="M56.077 38.538a.539.539 0 00-.24-.358l-13.425-8.898 1.408-1.707a1.785 1.785 0 00.453-.001 1.67 1.67 0 001.077-.58l1.03-1.25c.538-.653.384-1.576-.344-2.059l-5.127-3.398c-.728-.482-1.758-.343-2.296.31l-1.03 1.25a1.341 1.341 0 00-.169 1.477l-5.552 6.734a1.827 1.827 0 00-.45-.002 1.67 1.67 0 00-1.077.58l-1.03 1.25A1.35 1.35 0 0029 32.98c.065.388.295.73.647.965l5.128 3.398a1.756 1.756 0 001.219.272 1.671 1.671 0 001.076-.58l1.03-1.25a1.35 1.35 0 00.304-1.093 1.357 1.357 0 00-.134-.386l1.41-1.71 9.534 6.318 3.89 2.578a.655.655 0 00.363.107c.186 0 .37-.076.49-.221l2.007-2.434a.504.504 0 00.112-.406zm-17.012-7.031s0 0 0 0l-1.646 1.995-4.45-2.95 5.297-6.424 4.45 2.95-3.265 3.96-.386.468zm-.502-9.012l1.03-1.25a.443.443 0 01.341-.154c.087 0 .176.024.251.074l5.127 3.398c.188.125.228.363.09.532l-1.031 1.25a.455.455 0 01-.592.08l-5.127-3.4c-.188-.124-.228-.362-.09-.53zm-1.44 12.64l-1.032 1.25a.456.456 0 01-.592.08l-5.127-3.399a.375.375 0 01-.167-.249.35.35 0 01.079-.282l1.03-1.25a.442.442 0 01.341-.153c.087 0 .176.024.251.074l5.127 3.398c.091.06.15.15.167.25.017.1-.01.2-.078.28zm4.565-4.974l9.044 5.994-1.282 1.556-9.044-5.994 1.282-1.556zM53.34 40.289l-2.911-1.93 1.283-1.556 2.911 1.93-1.283 1.556zm-14.293 1.887H23.62c-.336 0-.609.244-.609.546v4.732c0 .302.273.546.61.546h15.427c.337 0 .61-.244.61-.546v-4.732c0-.302-.273-.546-.61-.546zm-.609 4.732h-14.21v-3.64h14.21v3.64zm-15.209-7.53c.287 0 .541-.182.598-.444.063-.295-.154-.582-.484-.638l-3.62-.622c-.332-.06-.65.137-.712.433-.063.296.153.583.484.64l3.619.62c.039.008.077.01.115.01zm-3.631-4.322l4.622 2.292a.663.663 0 00.294.069.624.624 0 00.534-.282c.162-.264.056-.596-.238-.742L20.188 34.1c-.295-.146-.665-.05-.828.214-.163.264-.056.596.238.742zm5.622.001a.64.64 0 00.476.204c.134 0 .268-.04.38-.12a.509.509 0 00.095-.767l-2.376-2.658a.658.658 0 00-.856-.085.509.509 0 00-.094.768l2.376 2.658z" fill="#EC1FF2" stroke="#EC1FF2"/><defs><linearGradient id="paint0_linear" x1="0" y1="37" x2="75" y2="37" gradientUnits="userSpaceOnUse"><stop stop-color="#391B3C"/><stop offset=".484" stop-color="#fff"/><stop offset="1" stop-color="#391B3C"/></linearGradient></defs></svg>