<svg width="76" height="71" fill="none" xmlns="http://www.w3.org/2000/svg"><ellipse cx="37.692" cy="37.207" rx="37.692" ry="33.793" fill="url(#paint0_linear)"/><ellipse cx="37.692" cy="33.794" rx="37.692" ry="33.794" fill="#3D221E"/><path d="M49.417 27.898c-.743 0-1.423.24-1.952.637v-3.574c0-2.184-1.982-3.961-4.418-3.961H33.46c-2.436 0-4.418 1.777-4.418 3.96v3.57a3.24 3.24 0 00-1.995-.672c-1.68 0-3.047 1.225-3.047 2.732v11.396c0 .264.239.478.534.478h4.465v4.058c0 .264.238.478.533.478.295 0 .534-.214.534-.478v-4.038l16.332.02v4.018c0 .264.239.478.533.478.295 0 .534-.214.534-.478v-4.018h4.464c.295 0 .534-.214.534-.478V30.63c0-1.506-1.366-2.732-3.046-2.732zM30.11 24.961c0-1.656 1.503-3.004 3.35-3.004h9.587c1.847 0 3.35 1.348 3.35 3.004v5.323a2.48 2.48 0 00-.027.346c0 .05.011.098.028.144v3.949H30.11V24.96zm-5.043 5.629c0-.979.888-1.775 1.98-1.775 1.09 0 1.979.796 1.979 1.774 0 .04.006.077.016.114v4.385a.426.426 0 00-.017.113v6.306h-3.958V30.59zm5.026 5.09H46.37v5.867l-16.277-.02V35.68zm21.303 5.867h-3.958v-6.202a.43.43 0 00.027-.144V30.35c.15-.846.967-1.495 1.952-1.495 1.09 0 1.979.797 1.979 1.775v10.917z" fill="#FF4E28" stroke="#FF4E28"/><defs><linearGradient id="paint0_linear" x1="0" y1="37" x2="75" y2="37" gradientUnits="userSpaceOnUse"><stop stop-color="#3D221E"/><stop offset=".5" stop-color="#fff"/><stop offset="1" stop-color="#3D221E"/></linearGradient></defs></svg>