<svg width="17" height="17" fill="none" xmlns="http://www.w3.org/2000/svg"><path d="M12.01 12.29a.277.277 0 01-.196-.082l-6.97-6.97a.278.278 0 01.393-.394l6.97 6.971a.278.278 0 01-.197.474z" fill="#A1A1A1" stroke="#828282" stroke-width=".75"/><path d="M5.04 12.29a.277.277 0 01-.195-.475l6.97-6.97a.278.278 0 11.393.392l-6.971 6.971a.277.277 0 01-.196.081z" fill="#A1A1A1" stroke="#828282" stroke-width=".75"/><path d="M8.5 16C4.366 16 1 12.636 1 8.5 1 4.366 4.365 1 8.5 1 12.637 1 16 4.365 16 8.5c0 4.136-3.364 7.5-7.5 7.5zm0-14.563A7.072 7.072 0 001.438 8.5c0 3.894 3.169 7.062 7.064 7.062A7.07 7.07 0 0015.564 8.5c0-3.895-3.168-7.064-7.062-7.064z" fill="#A1A1A1" stroke="#828282" stroke-width=".75"/></svg>