<svg width="203" height="30" fill="none" xmlns="http://www.w3.org/2000/svg"><path d="M25.39 2.342c.277 0 .493.102.657.302.163.2.22.44.171.714l-1.245 5.725a1.194 1.194 0 01-.432.714c-.24.2-.498.302-.771.302H13.005l-.604 2.787h10.014c.277 0 .49.102.64.302.152.2.2.44.152.714l-1.204 5.685c-.05.277-.2.514-.453.714-.253.2-.514.302-.792.302H10.745l-1.506 7.075a1.194 1.194 0 01-.433.714 1.17 1.17 0 01-.77.302H.845a.797.797 0 01-.658-.302.846.846 0 01-.171-.714L5.21 3.358a1.2 1.2 0 01.433-.714c.237-.2.494-.302.771-.302H25.39zm27.441 0c.278 0 .494.102.657.302.163.2.22.44.172.714l-3.277 15.396c-.376 1.783-.93 3.317-1.657 4.611-.726 1.294-1.648 2.367-2.766 3.22-1.118.852-2.437 1.48-3.955 1.88-1.517.4-3.268.605-5.251.605-1.632 0-3.179-.2-4.648-.604-1.469-.4-2.717-1.029-3.746-1.881a7.315 7.315 0 01-2.24-3.22c-.465-1.293-.51-2.828-.13-4.61l3.276-15.397a1.2 1.2 0 01.433-.714c.236-.2.493-.302.77-.302h7.378c.278 0 .494.102.657.302.164.2.22.44.172.714l-3.277 15.245c-.375 1.934.351 2.897 2.183 2.897 1.881 0 3.012-.967 3.387-2.897l3.277-15.245c.049-.277.196-.514.432-.714.237-.2.494-.302.772-.302h7.381zm26.572 0c.278 0 .494.102.657.302.164.2.22.44.172.714l-1.318 6.06a1.195 1.195 0 01-.433.714 1.17 1.17 0 01-.77.302h-6.248l-3.689 17.24a1.195 1.195 0 01-.433.714c-.24.2-.497.302-.77.302h-7.53a.803.803 0 01-.656-.302.846.846 0 01-.172-.714l3.69-17.24h-6.248a.802.802 0 01-.657-.302.846.846 0 01-.171-.714l1.318-6.06c.048-.277.195-.514.432-.714.237-.2.494-.302.771-.302h22.055zm38.766 26.352a.798.798 0 01-.657-.302.846.846 0 01-.171-.714l5.194-24.316c.049-.277.196-.514.433-.714.237-.2.494-.302.771-.302h11.744c1.706 0 3.211.164 4.517.49 1.306.326 2.371.824 3.199 1.485a5.218 5.218 0 011.73 2.485c.327.992.351 2.139.074 3.444a5.3 5.3 0 01-.657 1.673 7.234 7.234 0 01-1.053 1.355 9.168 9.168 0 01-1.204 1.016c-.412.29-.783.51-1.11.657.878.4 1.567 1.098 2.069 2.09.502.99.616 2.113.339 3.37-.604 2.836-1.832 4.925-3.689 6.267-1.857 1.343-4.493 2.016-7.904 2.016h-13.625zm9.749-6.476h3.501c.628 0 1.118-.2 1.469-.604.351-.4.563-.816.64-1.24a1.621 1.621 0 00-.13-1.26c-.212-.389-.608-.584-1.188-.584h-3.501l-.791 3.688zm7.189-11.67c.074-.4.037-.791-.114-1.167-.151-.375-.502-.563-1.053-.563h-3.162l-.751 3.424h3.163c.551 0 .983-.184 1.297-.547.314-.36.518-.743.62-1.147zm38.321-8.206c.277 0 .493.102.657.302.163.2.22.44.171.714l-3.277 15.396c-.375 1.783-.93 3.317-1.656 4.611-.727 1.294-1.649 2.367-2.767 3.22-1.118.852-2.436 1.48-3.954 1.88-1.518.4-3.268.605-5.252.605-1.632 0-3.178-.2-4.647-.604-1.469-.4-2.718-1.029-3.746-1.881a7.308 7.308 0 01-2.24-3.22c-.466-1.293-.51-2.828-.131-4.61l3.277-15.397c.049-.277.196-.514.432-.714.237-.2.494-.302.771-.302h7.378c.277 0 .494.102.657.302.163.2.22.44.171.714l-3.276 15.245c-.376 1.934.351 2.897 2.183 2.897 1.881 0 3.011-.967 3.387-2.897l3.276-15.245c.049-.277.196-.514.433-.714.236-.2.494-.302.771-.302h7.382zm6.961 26.352a.798.798 0 01-.657-.302.846.846 0 01-.171-.714l1.579-7.414-4.893-16.755a.787.787 0 01.151-.808c.2-.236.478-.359.829-.359h6.7c.502 0 .849.127 1.036.376.188.253.306.44.359.563l2.147 7.565 5.382-7.565c.073-.127.265-.314.563-.563.302-.25.702-.376 1.204-.376h7.455c.351 0 .571.139.657.412a.775.775 0 01-.131.751l-12.045 16.75-1.58 7.415a1.192 1.192 0 01-.432.714c-.237.2-.494.302-.771.302h-7.382v.008z" fill="#FCFCFC"/><path d="M98.017 25.842c9.371 0 16.967-3.723 16.967-8.316 0-4.593-7.596-8.316-16.967-8.316-9.37 0-16.967 3.723-16.967 8.316 0 4.593 7.597 8.316 16.967 8.316z" fill="#F5F651"/><path d="M81.05 21.684v-4.158c0 4.595 7.598 8.316 16.967 8.316s16.967-3.726 16.967-8.316v4.158c0 4.595-7.598 8.316-16.967 8.316S81.05 26.279 81.05 21.684z" fill="url(#paint0_linear)"/><path d="M100.009 16.632c9.37 0 16.966-3.723 16.966-8.316 0-4.593-7.596-8.316-16.966-8.316-9.371 0-16.967 3.723-16.967 8.316 0 4.593 7.596 8.316 16.967 8.316z" fill="#F5F651"/><path d="M83.042 12.474V8.316c0 4.595 7.598 8.316 16.967 8.316 9.368 0 16.966-3.725 16.966-8.316v4.158c0 4.595-7.598 8.316-16.966 8.316-9.37 0-16.967-3.721-16.967-8.316z" fill="url(#paint1_linear)"/><defs><linearGradient id="paint0_linear" x1="81" y1="18" x2="115.5" y2="18" gradientUnits="userSpaceOnUse"><stop stop-color="#BC9C00"/><stop offset=".505" stop-color="#FFD818"/><stop offset="1" stop-color="#BD9D00"/></linearGradient><linearGradient id="paint1_linear" x1="82.5" y1="9" x2="117" y2="9" gradientUnits="userSpaceOnUse"><stop stop-color="#BD9D00"/><stop offset=".518" stop-color="#FFD717"/><stop offset="1" stop-color="#BB9B00"/></linearGradient></defs></svg>