<svg width="19" height="18" fill="none" xmlns="http://www.w3.org/2000/svg"><path d="M17.561 3.1a.28.28 0 00-.212-.097H4.15L3.612 1.2a.28.28 0 00-.268-.2H1.28a.28.28 0 100 .56h1.855l3.4 11.394.003.004.422 1.437a1.457 1.457 0 00-.432 1.036c0 .808.657 1.465 1.464 1.465.78 0 1.419-.617 1.458-1.39h3.666l-.001.03c0 .808.656 1.464 1.462 1.464.807 0 1.463-.656 1.463-1.463s-.656-1.463-1.463-1.463c-.596 0-1.11.36-1.337.873H9.37a1.456 1.456 0 00-1.378-.978s0 0 0 0c-.192 0-.375.038-.543.105l-.27-.92h8.703a.28.28 0 00.277-.237l1.467-9.592a.28.28 0 00-.065-.224zm-2.984 11.533a.905.905 0 010 1.808.905.905 0 010-1.808zm-6.585-.105h0c.24 0 .467.094.638.265a.905.905 0 01-.638 1.544.905.905 0 010-1.808zm7.65-1.933H7.014l-.529-1.8a.279.279 0 00-.028-.062l-2.14-7.17h12.706l-1.381 9.032z" fill="#FCFCFC" stroke="#828282" stroke-width=".75"/></svg>