<svg width="76" height="71" fill="none" xmlns="http://www.w3.org/2000/svg"><ellipse cx="37.692" cy="37.206" rx="37.692" ry="33.794" fill="url(#paint0_linear)"/><ellipse cx="37.692" cy="33.794" rx="37.692" ry="33.794" fill="#3A3122"/><path d="M53.55 38.683c-.063-1.58-.612-3.485-1.547-5.363-2.056-4.129-5.127-6.635-7.142-5.827l-1.17.468v-2.49c0-1.979-3.803-3.471-8.846-3.471C29.803 22 26 23.492 26 25.47v4.46c0 .024.004.047.008.07a.406.406 0 00-.008.068c0 .04.004.08.007.12-.003.021-.007.042-.007.064v4.46c0 .023.004.046.008.069a.383.383 0 00-.008.069c0 .05.004.1.01.15a.386.386 0 00-.01.08v4.458c0 .024.004.047.008.07a.383.383 0 00-.008.068c0 1.98 3.803 3.471 8.845 3.471 3.196 0 6.11-.652 7.65-1.685C43.869 43.06 45.347 44 46.585 44c.282 0 .553-.049.806-.15l4.682-1.875c1.02-.406 1.544-1.576 1.476-3.292zm-18.705-15.81c4.639 0 7.871 1.37 7.871 2.598 0 1.229-3.233 2.598-7.87 2.598-4.64 0-7.872-1.37-7.872-2.598 0-1.228 3.233-2.597 7.871-2.597zm-7.87 7.058v-2.826c1.44 1.11 4.353 1.837 7.87 1.837 3.518 0 6.43-.726 7.871-1.837v1.247l-2.538 1.015c-.976.392-1.47 1.468-1.489 2.942-1.175.23-2.49.357-3.844.357-4.639 0-7.871-1.369-7.871-2.597a.377.377 0 00-.008-.07.383.383 0 00.008-.068zm0 4.781v-3.01c1.44 1.11 4.353 1.838 7.87 1.838 1.358 0 2.688-.117 3.887-.339.11 1.08.434 2.313.97 3.616-1.44.417-3.07.63-4.857.63-4.638 0-7.87-1.368-7.87-2.597a.379.379 0 00-.009-.069.405.405 0 00.008-.069zm7.87 7.563c-4.638 0-7.87-1.37-7.87-2.598a.377.377 0 00-.009-.069.406.406 0 00.008-.069v-3.056c1.441 1.111 4.354 1.838 7.871 1.838 1.914 0 3.663-.234 5.215-.69.06.13.125.261.19.393a17.52 17.52 0 001.678 2.731c-1.343.918-4.109 1.52-7.083 1.52zm12.15.778c-1.252.5-3.964-1.588-5.855-5.385-1.891-3.797-1.815-7.002-.565-7.503l3.026-1.211c-.167.508-.243 1.122-.215 1.832.062 1.581.612 3.486 1.547 5.364 1.435 2.882 3.363 4.968 5.083 5.694l-3.021 1.209zm4.681-1.874c-1.25.5-3.962-1.588-5.854-5.385-.885-1.778-1.404-3.567-1.462-5.039-.052-1.317.276-2.215.899-2.464.123-.05.26-.074.41-.074 1.367 0 3.74 2.035 5.445 5.459.885 1.778 1.404 3.567 1.462 5.038.051 1.317-.277 2.215-.9 2.465z" fill="#F4B746" stroke="#F4B746"/><defs><linearGradient id="paint0_linear" x1="0" y1="37" x2="75" y2="37" gradientUnits="userSpaceOnUse"><stop stop-color="#3A3122"/><stop offset=".5" stop-color="#fff"/><stop offset="1" stop-color="#3A3122"/></linearGradient></defs></svg>