<svg width="20" height="20" fill="none" xmlns="http://www.w3.org/2000/svg"><path d="M10 20c5.523 0 10-4.477 10-10S15.523 0 10 0 0 4.477 0 10s4.477 10 10 10z" fill="#FDD202"/><path d="M5.433 9.953v-5.96a.52.52 0 01.16-.38.52.52 0 01.38-.16h5.36c1.614 0 2.867.38 3.76 1.14.894.76 1.34 1.874 1.34 3.34 0 1.467-.446 2.587-1.34 3.36-.893.774-2.146 1.16-3.76 1.16h-3.2v4.46a.519.519 0 01-.16.38.519.519 0 01-.38.16h-1.62a.519.519 0 01-.38-.16.519.519 0 01-.16-.38v-4.46h-1.58c-.293 0-.44-.146-.44-.44v-1.62c0-.293.147-.44.44-.44h1.58zm2.7 0h3.1c.76 0 1.367-.153 1.82-.446.454-.3.68-.82.68-1.567s-.226-1.267-.68-1.553c-.453-.287-1.06-.434-1.82-.434h-3.1v4z" fill="#000"/></svg>