<svg width="76" height="71" fill="none" xmlns="http://www.w3.org/2000/svg"><ellipse cx="37.692" cy="37.207" rx="37.692" ry="33.793" fill="url(#paint0_linear)"/><ellipse cx="37.692" cy="33.793" rx="37.692" ry="33.793" fill="#163C37"/><path d="M50.596 23.613a.6.6 0 00-.124-.026c-4.468-.4-8.056-1.287-12.13-4.466a.593.593 0 00-.772.048c-.012.011-.015.026-.025.038-4.04 3.13-7.611 4.01-12.051 4.408-.01 0-.02.004-.03.005a.594.594 0 00-.284.121.508.508 0 00-.16.237.486.486 0 00-.017.097c0 .01-.003.018-.003.028v12.623c0 .044.006.087.02.129C27.468 44.953 37.35 48.8 37.77 48.96a.605.605 0 00.426 0c.424-.16 10.42-4.007 12.869-12.106a.428.428 0 00.016-.079l.048-.42a.438.438 0 00.003-.05V24.103c0-.267-.239-.484-.535-.49zm-.6 13.023C47.86 43.614 39.439 47.37 37.985 47.971c-1.44-.603-9.74-4.343-11.89-11.31V24.542c4.333-.43 7.907-1.375 11.906-4.398 4.036 3.039 7.641 3.966 12.035 4.387V36.28l-.04.355z" fill="#44FFC9" stroke="#44FFC9"/><path d="M41.127 31.396c0 .272.245.491.548.491.302 0 .547-.22.547-.49 0-1.569-1.575-2.865-3.608-3.066v-2.506c0-.271-.244-.491-.547-.491-.303 0-.548.22-.548.491v2.506c-2.033.2-3.609 1.497-3.609 3.066 0 1.567 1.576 2.863 3.61 3.064v4.222c-1.428-.178-2.515-1.042-2.515-2.08 0-.27-.245-.49-.547-.49-.303 0-.548.22-.548.49 0 1.57 1.576 2.868 3.61 3.068v2.504c0 .272.244.491.547.491.303 0 .547-.22.547-.49V39.67c2.034-.202 3.608-1.498 3.608-3.066 0-1.568-1.575-2.864-3.608-3.065v-4.22c1.427.179 2.513 1.041 2.513 2.078zm-6.122 0c0-1.036 1.087-1.898 2.514-2.077v4.154c-1.427-.18-2.514-1.041-2.514-2.076zm6.122 5.208c0 1.035-1.086 1.898-2.513 2.078v-4.155c1.427.18 2.513 1.041 2.513 2.077z" fill="#44FFC9" stroke="#44FFC9"/><defs><linearGradient id="paint0_linear" x1="0" y1="37" x2="75" y2="37" gradientUnits="userSpaceOnUse"><stop stop-color="#163C37"/><stop offset=".495" stop-color="#fff"/><stop offset="1" stop-color="#163C37"/></linearGradient></defs></svg>