<svg width="76" height="71" fill="none" xmlns="http://www.w3.org/2000/svg"><ellipse cx="37.692" cy="37.207" rx="37.692" ry="33.793" fill="url(#paint0_linear)"/><ellipse cx="37.692" cy="33.794" rx="37.692" ry="33.794" fill="#163A3E"/><path d="M50.087 26.534c.493-2.223.713-5.095-1.048-6.146-1.76-1.052-4.63.234-6.73 1.499-2.248 1.354-4.615 3.326-5.627 4.689l-.778 1.046c-1.152-.03-5.03-.085-6.436.428-1.533.563-4.327 3.525-4.462 4.732-.048.434.193.647.34.735.288.172 1.093.234 2.108.234 1.22 0 2.741-.09 4.035-.188l-.34.457c-.001.003-.003.004-.005.006l-.004.007-2.14 2.88c-1.436 1.932-1.431 4.455-.026 6.38l-.92 1.239a1.953 1.953 0 00-.338 1.665c.144.576.531 1.078 1.09 1.411.443.265.943.392 1.434.392.794 0 1.562-.333 2.023-.953l.919-1.236c.393.066.788.1 1.18.1 2.125 0 4.169-.947 5.383-2.58l2.659-3.578c.728 2.03 1.779 4.688 2.412 5.065a.823.823 0 00.422.114c.134 0 .29-.03.467-.115 1.19-.577 3.164-4.03 3.15-5.515-.01-1.36-1.563-4.55-2.036-5.49l.606-.816c1.013-1.362 2.133-4.08 2.662-6.462zm-12.576.538c.814-1.095 2.915-2.973 5.354-4.443 2.572-1.55 4.62-2.095 5.621-1.497 1 .598 1.227 2.503.622 5.228-.574 2.585-1.698 5.046-2.513 6.14l-5.26 7.078-6.226-3.719-.006-.005-.008-.003-2.844-1.7 4.306-5.795a.477.477 0 00.035-.047l.92-1.237zm-11.506 5.73c.158-.76 2.51-3.436 3.84-3.924.957-.35 3.71-.394 5.403-.373l-3.05 4.104c-2.566.211-5.486.33-6.193.192zm3.825 4.608l1.868-2.515 2.437 1.456-4.55 6.12c-.96-1.577-.888-3.537.244-5.061zm1.604 9.142c-.441.592-1.372.733-2.075.312a1.416 1.416 0 01-.67-.863 1.142 1.142 0 01.194-.973l1.104-1.486.022-.028 4.956-6.668 2.55 1.523-6.081 8.182zm7.481-3.716c-1.134 1.525-3.126 2.34-5.12 2.15l4.55-6.121 2.438 1.457-1.868 2.514zm8.944-3.527c.011 1.287-1.83 4.256-2.555 4.687-.433-.565-1.426-3.008-2.191-5.197l3.05-4.104c.673 1.393 1.688 3.688 1.696 4.614z" fill="#00F1FC" stroke="#00F1FC"/><path d="M40.212 31.963a4.209 4.209 0 002.16.587c1.265 0 2.508-.548 3.261-1.56h0c1.194-1.61.706-3.79-1.087-4.861a4.254 4.254 0 00-2.936-.52c-1.024.184-1.906.714-2.484 1.493-.58.78-.786 1.714-.58 2.632.204.918.796 1.71 1.666 2.229zm-.256-4.365c.43-.58 1.087-.975 1.85-1.112.193-.035.386-.052.578-.052.569 0 1.125.15 1.608.439 1.337.798 1.7 2.422.811 3.62-.892 1.2-2.704 1.524-4.038.726-.648-.387-1.09-.976-1.242-1.66-.153-.684 0-1.38.433-1.961z" fill="#00F1FC" stroke="#00F1FC"/><defs><linearGradient id="paint0_linear" x1="0" y1="37" x2="75" y2="37" gradientUnits="userSpaceOnUse"><stop stop-color="#163A3E"/><stop offset=".5" stop-color="#fff"/><stop offset="1" stop-color="#163A3E"/></linearGradient></defs></svg>