<svg width="17" height="20" fill="none" xmlns="http://www.w3.org/2000/svg"><path d="M10.266 8.206a.284.284 0 00-.401.025L5.92 12.699a.284.284 0 00.427.376l3.943-4.468a.285.285 0 00-.025-.401zM6.67 10.137c.32-.136.568-.39.698-.712.13-.324.126-.678-.01-.998a1.295 1.295 0 00-.712-.699 1.307 1.307 0 00-1.698.723 1.29 1.29 0 00.012.998 1.3 1.3 0 001.2.793c.173 0 .346-.035.51-.105zm-1.187-.912a.727.727 0 01-.007-.561.739.739 0 01.957-.408.73.73 0 01.402.393.73.73 0 01.005.563.73.73 0 01-.954.408.734.734 0 01-.403-.395z" fill="#00F1FC" stroke="#00F1FC" stroke-width=".75"/><path d="M16.282 8.823a.285.285 0 00-.293-.277l-1.635.05.369-1.161a.285.285 0 00-.185-.358l-2.702-.858-.46-4.96c-.013-.147-.152-.259-.3-.259a.284.284 0 00-.266.185L9.237 5.393l-4.691-1.49a.285.285 0 00-.358.185l-3.175 9.991c-.047.15.036.31.186.358l5.097 1.62.076 2.667c.004.154.13.276.284.276h.008l9.613-.271a.285.285 0 00.277-.293l-.271-9.613zm-5.36-6.31l.326 3.519-1.468-.467 1.141-3.053zM4.644 4.53l9.45 3.002-3.003 9.45-9.45-3.003 3.003-9.45zm2.288 13.891L6.87 16.24l4.32 1.373a.284.284 0 00.357-.185l2.623-8.256 1.55-.047.256 9.043-9.044.255z" fill="#00F1FC" stroke="#00F1FC" stroke-width=".75"/><path d="M10.079 11.618a1.295 1.295 0 00-.999.01c-.32.136-.569.39-.699.713a1.302 1.302 0 00.724 1.696 1.3 1.3 0 001.696-.723c.13-.323.127-.678-.01-.998a1.293 1.293 0 00-.712-.698zm.194 1.483a.73.73 0 01-.955.407.73.73 0 01-.403-.393.73.73 0 01.676-1.023.736.736 0 01.682 1.01z" fill="#00F1FC" stroke="#00F1FC" stroke-width=".75"/></svg>